<svg xmlns="http://www.w3.org/2000/svg" xmlns:xlink="http://www.w3.org/1999/xlink" width="160" height="30" viewBox="0 0 160 30"><defs><style>.a,.b{fill:#005bab;}.b,.c{fill-rule:evenodd;}.c{fill:url(#a);}.d{fill:#252525;}</style><linearGradient id="a" y1="0.501" x2="0.999" y2="0.501" gradientUnits="objectBoundingBox"><stop offset="0" stop-color="#005bab"/><stop offset="1" stop-color="#fff" stop-opacity="0"/></linearGradient></defs><g transform="translate(2583 12526)"><path class="a" d="M27.632,30a2.792,2.792,0,0,1-2.594-3.749H13.647a2.764,2.764,0,1,1-5.188,0H5.526a.93.93,0,0,1-.921-.938V2.813H0L1,0H6.448a.93.93,0,0,1,.921.938v22.5H35L34,26.25H30.226A2.792,2.792,0,0,1,27.632,30Zm.068-3.6a1,1,0,1,0,1,1A1,1,0,0,0,27.7,26.4ZM11,26.4a1,1,0,1,0,1,1A1,1,0,0,0,11,26.4Z" transform="translate(-2583 -12526)"/><g transform="translate(-2909 -12641)"><g transform="translate(363 138)"><g transform="translate(0 0)"><g transform="translate(0)"><path class="b" d="M20.725,13.9H18.159a.19.19,0,0,0-.149.093c-.688,1.485-2.455,5.366-2.976,6.61-.037.074,0,.093.056.093h1.637a.153.153,0,0,0,.149-.093l.577-1.393a.1.1,0,0,1,.112-.074h1.544c.037,0,.056,0,.074.056l.037,1.393c0,.074.037.093.112.093h1.8c.074,0,.093-.037.093-.093-.019-.891-.279-5.106-.391-6.61A.107.107,0,0,0,20.725,13.9Zm-1.432,3.844a.059.059,0,0,1-.056.056H18.01c-.037,0-.037-.019-.037-.056.149-.408.725-1.82.986-2.377.019-.037.056-.037.167-.037.13,0,.149.019.149.037C19.293,15.942,19.293,17.335,19.293,17.743Z" transform="translate(-15.019 -13.807)"/><path class="b" d="M68.209,13.4c-2.064,0-3.106,1.374-3.515,3.546-.428,2.228.093,3.454,2.157,3.454a5.155,5.155,0,0,0,1.6-.223.125.125,0,0,0,.074-.111l.167-1.281c0-.056-.056-.056-.112-.056a6.061,6.061,0,0,1-1.1.111c-.911,0-1.116-.353-.818-1.894.316-1.671.669-2.024,1.581-2.024a5.561,5.561,0,0,1,1.023.111c.037.019.093-.037.093-.056l.335-1.337c.019-.056,0-.074-.037-.093A5.781,5.781,0,0,0,68.209,13.4Z" transform="translate(-55.343 -13.4)"/><path class="b" d="M106.009,13.4c-2.064,0-3.106,1.374-3.515,3.546-.428,2.228.093,3.454,2.157,3.454a5.155,5.155,0,0,0,1.6-.223.125.125,0,0,0,.074-.111l.167-1.281c0-.056-.056-.056-.112-.056a6.061,6.061,0,0,1-1.1.111c-.911,0-1.116-.353-.818-1.894.316-1.671.67-2.024,1.581-2.024a5.561,5.561,0,0,1,1.023.111c.037.019.093-.037.093-.056l.335-1.337c.019-.056,0-.074-.037-.093A5.574,5.574,0,0,0,106.009,13.4Z" transform="translate(-86.113 -13.4)"/><path class="b" d="M144.893,13.9h-3.719a.1.1,0,0,0-.112.093l-1.283,6.61c-.019.056.019.093.074.093h3.85a.1.1,0,0,0,.112-.093l.242-1.3c.019-.056-.019-.093-.074-.093h-2.064a.049.049,0,0,1-.056-.056l.223-1.17c0-.037.037-.056.074-.056h1.748a.1.1,0,0,0,.112-.093l.223-1.188c.019-.056-.019-.093-.074-.093H142.42a.049.049,0,0,1-.056-.056l.2-1.058c0-.037.037-.056.074-.056h1.934a.1.1,0,0,0,.112-.093l.242-1.244C144.986,13.937,144.967,13.9,144.893,13.9Z" transform="translate(-116.573 -13.807)"/><path class="b" d="M181.268,19.292h-1.451a.049.049,0,0,1-.056-.056l1-5.143c.019-.056-.019-.093-.074-.093h-1.6a.1.1,0,0,0-.112.093l-1.3,6.592c-.019.056.019.093.074.093h3.217a.1.1,0,0,0,.112-.093l.242-1.3C181.361,19.329,181.324,19.292,181.268,19.292Z" transform="translate(-147.425 -13.889)"/><path class="b" d="M216.193,13.9h-3.719a.1.1,0,0,0-.112.093l-1.283,6.61c-.019.056.019.093.074.093H215a.1.1,0,0,0,.112-.093l.242-1.3c.019-.056-.019-.093-.074-.093h-2.064a.049.049,0,0,1-.056-.056l.223-1.17c0-.037.037-.056.074-.056h1.748a.1.1,0,0,0,.112-.093l.223-1.188c.019-.056-.019-.093-.074-.093H213.72a.049.049,0,0,1-.056-.056l.2-1.058c0-.037.037-.056.074-.056h1.934a.1.1,0,0,0,.112-.093l.242-1.244C216.286,13.937,216.267,13.9,216.193,13.9Z" transform="translate(-174.614 -13.807)"/><path class="b" d="M252.661,13.9h-2.287a.1.1,0,0,0-.112.093l-1.283,6.61c-.019.056.019.093.074.093h1.6a.1.1,0,0,0,.112-.093l.446-2.265c.019-.074.056-.074.13-.074h.335c.112,0,.149.019.223.353l.428,1.987c.019.074.037.093.112.093h1.785a.087.087,0,0,0,.093-.093l-.725-2.544a.8.8,0,0,1-.074-.334c.019-.056.037-.074.167-.186a2.762,2.762,0,0,0,1.06-1.782C255.041,14.364,254.3,13.9,252.661,13.9Zm.223,2.21c-.149.761-.409,1.021-1,1.021-.316,0-.409-.019-.391-.111l.335-1.745c.019-.056.037-.074.242-.074h.186C252.884,15.163,253.014,15.423,252.884,16.11Z" transform="translate(-205.465 -13.807)"/><path class="b" d="M295.044,13.9h-2.566a.19.19,0,0,0-.149.093c-.688,1.467-2.455,5.366-2.994,6.61-.037.074,0,.093.056.093h1.637a.153.153,0,0,0,.149-.093l.577-1.393a.1.1,0,0,1,.112-.074h1.544c.037,0,.056,0,.074.056l.056,1.411c0,.074.037.093.112.093h1.8c.074,0,.093-.037.093-.093-.019-.891-.279-5.106-.39-6.61C295.137,13.937,295.118,13.9,295.044,13.9Zm-1.432,3.844a.059.059,0,0,1-.056.056h-1.227c-.037,0-.037-.019-.037-.056.149-.408.725-1.82.986-2.377.019-.037.056-.037.167-.037.13,0,.149.019.149.037C293.612,15.942,293.612,17.335,293.612,17.743Z" transform="translate(-238.308 -13.807)"/><path class="b" d="M342.942,13.9h-4.11a.1.1,0,0,0-.112.093l-.242,1.263c-.019.056.019.093.074.093h1.1a.049.049,0,0,1,.056.056l-1,5.2c-.019.056.019.093.074.093h1.6a.1.1,0,0,0,.112-.093l1-5.18c0-.037.037-.056.074-.056h1.1a.1.1,0,0,0,.112-.093l.242-1.263C343.035,13.937,343.017,13.9,342.942,13.9Z" transform="translate(-278.321 -13.807)"/><path class="c" d="M377.28,15.348h22.967l.3-1.448H375.792a.14.14,0,0,0-.13.093l-1.283,6.61c-.019.056.019.093.074.093h24.7l.3-1.5h-22.93c-.019,0-.056-.019-.037-.056l.223-1.151h23.06l.3-1.467H377.038c-.019-.019-.019-.037-.037-.056l.2-1.058A.257.257,0,0,1,377.28,15.348Z" transform="translate(-307.545 -13.807)"/></g></g></g><path class="d" d="M1.435-14.545V3.666H4.578V-8.872h.168l5,12.485h2.349l5-12.458h.168V3.666H20.4V-14.545H16.392l-5.369,13.2h-.212l-5.369-13.2ZM27.73,3.942A4.183,4.183,0,0,0,31.712,1.79h.106V3.666h3.073V-5.475c0-3.61-2.923-4.7-5.51-4.7-2.852,0-5.042,1.28-5.748,3.77l2.985.427A2.707,2.707,0,0,1,29.4-7.707c1.483,0,2.3.765,2.3,2.107v.053c0,.925-.962.969-3.355,1.227-2.631.285-5.148,1.076-5.148,4.153C23.192,2.519,25.143,3.942,27.73,3.942Zm.83-2.365c-1.333,0-2.287-.614-2.287-1.8,0-1.236,1.068-1.752,2.5-1.956A9.674,9.674,0,0,0,31.7-2.843v1.61A2.9,2.9,0,0,1,28.56,1.576Zm9.554,2.09h3.2v-8.03a2.907,2.907,0,0,1,3.055-2.961,6.068,6.068,0,0,1,1.483.187V-10.1a7.623,7.623,0,0,0-1.148-.089,3.389,3.389,0,0,0-3.347,2.472h-.141V-9.993h-3.1Zm9.863,0h3.2V-.922l1.166-1.254,4.15,5.842h3.823L54.75-4.1,60-9.993H56.268L51.394-4.506h-.221V-14.545h-3.2Zm19.585.267c3.161,0,5.333-1.556,5.9-3.93L70.476-.336a2.827,2.827,0,0,1-2.87,1.761c-2.066,0-3.435-1.369-3.461-3.708h9.448V-3.27c0-4.793-2.861-6.9-6.2-6.9-3.885,0-6.419,2.872-6.419,7.087C60.975,1.2,63.473,3.933,67.562,3.933ZM64.153-4.453a3.27,3.27,0,0,1,3.285-3.21,3.033,3.033,0,0,1,3.09,3.21Zm18.914-5.54H80.392v-3.272H77.2v3.272H75.27V-7.5H77.2V.091c-.018,2.57,1.837,3.833,4.238,3.761a6.384,6.384,0,0,0,1.881-.32l-.539-2.517a3.96,3.96,0,0,1-.936.124c-.8,0-1.448-.285-1.448-1.583V-7.5h2.675ZM85.742,6.455h3.2V1.514h.132a4.087,4.087,0,0,0,3.885,2.392c3.2,0,5.589-2.552,5.589-7.052,0-4.553-2.464-7.025-5.6-7.025a4.023,4.023,0,0,0-3.876,2.436h-.185V-9.993H85.742Zm3.135-9.618c0-2.65,1.13-4.366,3.188-4.366,2.128,0,3.223,1.823,3.223,4.366,0,2.561-1.113,4.428-3.223,4.428C90.025,1.265,88.877-.513,88.877-3.163Zm15.594-11.382h-3.2V3.666h3.2Zm7.188,18.487A4.183,4.183,0,0,0,115.64,1.79h.106V3.666h3.073V-5.475c0-3.61-2.923-4.7-5.51-4.7-2.852,0-5.042,1.28-5.748,3.77l2.984.427a2.707,2.707,0,0,1,2.781-1.734c1.483,0,2.3.765,2.3,2.107v.053c0,.925-.962.969-3.355,1.227-2.631.285-5.148,1.076-5.148,4.153C107.12,2.519,109.071,3.942,111.658,3.942Zm.83-2.365c-1.333,0-2.287-.614-2.287-1.8,0-1.236,1.068-1.752,2.5-1.956a9.673,9.673,0,0,0,2.932-.667v1.61A2.9,2.9,0,0,1,112.488,1.576Zm15.47,2.356c3.408,0,5.58-2.036,5.81-4.935h-3.055a2.651,2.651,0,0,1-2.728,2.312c-2,0-3.285-1.681-3.285-4.473,0-2.757,1.316-4.411,3.285-4.411a2.663,2.663,0,0,1,2.728,2.312h3.055c-.221-2.961-2.517-4.909-5.828-4.909-3.973,0-6.481,2.89-6.481,7.06C121.459,1.025,123.905,3.933,127.958,3.933Zm14.446,0c3.161,0,5.333-1.556,5.9-3.93l-2.985-.338a2.827,2.827,0,0,1-2.87,1.761c-2.066,0-3.435-1.369-3.461-3.708h9.448V-3.27c0-4.793-2.861-6.9-6.2-6.9-3.885,0-6.419,2.872-6.419,7.087C135.817,1.2,138.316,3.933,142.4,3.933ZM139-4.453a3.27,3.27,0,0,1,3.285-3.21,3.033,3.033,0,0,1,3.09,3.21Z" transform="translate(337.565 129.546)"/></g></g></svg>